<?xml version="1.0" encoding="UTF-8"?>
<svg id="Layer_1" xmlns="http://www.w3.org/2000/svg" version="1.1" viewBox="0 0 180 180">
  <!-- Generator: Adobe Illustrator 30.2.1, SVG Export Plug-In . SVG Version: 2.1.1 Build 1)  -->
  <g>
    <path d="M18.545,105.039l.97-.18c.23-.05.41-.1.55-.14s.24-.12.31-.23.12-.26.14-.46c.03-.19.04-.45.04-.78v-13.9c0-.33,0-.59-.03-.78-.02-.19-.07-.34-.14-.46-.08-.11-.19-.19-.33-.23s-.32-.09-.55-.14l-.97-.18v-.29h7.04v.29l-.97.18c-.24.04-.43.08-.57.13-.14.05-.25.13-.33.23-.08.1-.13.26-.14.46-.02.2-.03.47-.03.8v13.64c0,.37.02.67.07.9.04.23.15.42.33.55.17.13.44.22.81.26.37.04.88.07,1.54.07.63,0,1.13-.02,1.53-.05.39-.03.72-.11.99-.22s.49-.27.67-.47c.17-.2.36-.46.55-.77.26-.47.52-1.01.78-1.62s.51-1.27.76-1.98h.34l-.37,5.69h-12.99v-.32Z" style="fill: #58595b;"/>
    <path d="M39.705,105.639c-1.13,0-2.1-.16-2.91-.48-.81-.32-1.48-.78-2.02-1.38-.54-.6-.93-1.32-1.19-2.17-.25-.84-.38-1.8-.38-2.86s.17-2.06.51-2.93c.34-.88.8-1.63,1.37-2.26.57-.63,1.24-1.11,2.01-1.46.76-.35,1.58-.52,2.45-.52,1.65,0,2.95.49,3.9,1.47.95.98,1.41,2.55,1.4,4.71h-8.82v.21c0,1.11.1,2.06.31,2.84s.51,1.42.9,1.92.88.86,1.46,1.1c.58.23,1.24.35,1.97.35.78,0,1.49-.08,2.13-.25.63-.16,1.2-.4,1.71-.69v.34c-.47.52-1.11,1-1.93,1.42-.82.43-1.77.64-2.87.64h0ZM39.445,92.149c-.96,0-1.74.4-2.36,1.21-.62.8-.97,2.11-1.06,3.91l6.03-.23c0-1.71-.2-2.95-.59-3.72-.39-.77-1.07-1.15-2.02-1.15v-.02Z" style="fill: #58595b;"/>
    <path d="M50.945,110.409c-1.69,0-3-.24-3.94-.73s-1.41-1.21-1.41-2.17c0-.68.23-1.26.7-1.73.47-.48,1.21-.86,2.22-1.13v-.05c-.64-.14-1.11-.38-1.41-.73-.3-.35-.44-.78-.44-1.3,0-.61.19-1.16.57-1.64.38-.49.83-.87,1.36-1.15v-.08c-.66-.33-1.2-.8-1.6-1.4-.41-.6-.61-1.3-.61-2.1s.15-1.46.44-2.03c.3-.57.68-1.05,1.16-1.43s1.02-.67,1.62-.86c.6-.19,1.21-.29,1.84-.29.54,0,1.07.06,1.59.18s.99.31,1.41.57c.45-.43.88-.76,1.29-.98s.83-.33,1.27-.33c.4,0,.73.1.99.3.26.2.39.52.39.95,0,.31-.09.57-.26.76-.17.19-.43.29-.78.29-.28,0-.48-.06-.61-.17s-.24-.28-.33-.51c-.17-.4-.39-.59-.64-.57s-.57.17-.95.47v.05c.56.35.99.8,1.29,1.37s.46,1.22.46,1.97-.15,1.43-.44,1.98c-.3.56-.68,1.02-1.16,1.38-.48.37-1.03.63-1.64.81-.62.17-1.24.26-1.86.26-.96,0-1.76-.15-2.4-.44-.19.14-.38.33-.56.59-.18.25-.27.53-.27.82,0,.33.12.57.37.73.24.16.64.23,1.2.23h4.33c1.23,0,2.19.25,2.86.74.67.5,1,1.31,1,2.44,0,.56-.13,1.13-.4,1.71-.27.58-.69,1.11-1.25,1.59-.57.48-1.29.87-2.18,1.17-.89.3-1.95.46-3.18.46h-.04ZM51.385,109.839c.64,0,1.25-.07,1.83-.2.57-.13,1.07-.33,1.49-.59.42-.26.75-.59.99-.98.24-.39.37-.85.37-1.37,0-.71-.2-1.22-.6-1.53-.4-.3-1.07-.46-2.01-.46h-4.28c-.42.19-.74.49-.98.9-.23.41-.35.91-.35,1.5,0,.96.3,1.65.91,2.07.61.43,1.49.64,2.63.64v.02ZM51.445,99.899c.82,0,1.43-.28,1.83-.83s.6-1.49.6-2.81c0-1.47-.2-2.53-.6-3.16-.4-.63-1.01-.95-1.83-.95s-1.4.29-1.8.86-.6,1.53-.6,2.86c0,1.46.2,2.49.6,3.11s1,.92,1.8.92Z" style="fill: #58595b;"/>
    <path d="M62.395,105.669c-1.18,0-2.11-.28-2.79-.85s-1.02-1.35-1.02-2.36c0-.59.11-1.09.34-1.49.23-.4.53-.73.91-1,.38-.27.81-.48,1.28-.64.47-.16.96-.3,1.46-.44l3.44-.86v-2.83c0-.48-.02-.91-.05-1.29-.04-.37-.13-.69-.29-.95-.16-.26-.39-.46-.69-.6s-.72-.21-1.24-.21c-.59,0-.98.09-1.17.27-.19.18-.33.49-.42.92-.07.67-.22,1.14-.44,1.4-.23.26-.57.39-1.04.39-.43,0-.77-.11-.99-.33-.23-.22-.34-.52-.34-.9,0-.42.14-.77.43-1.06s.66-.53,1.12-.72.98-.33,1.57-.42c.58-.09,1.17-.13,1.76-.13,1.58,0,2.73.29,3.44.86.71.57,1.07,1.43,1.07,2.58v8.09c0,.4.04.7.13.9.09.2.22.35.39.46.19.14.4.23.64.26.23.04.47.06.72.08v.21c-.19.14-.49.28-.89.42s-.85.21-1.36.21c-1.32,0-2.06-.55-2.22-1.64h-.08c-.37.45-.86.84-1.49,1.17s-1.36.5-2.19.5h.01ZM63.575,104.469c.61,0,1.12-.1,1.53-.31.41-.21.72-.46.93-.76v-4.62l-1.51.26c-.52.09-.98.2-1.37.34s-.72.32-.99.55-.47.5-.6.83-.2.74-.2,1.23c0,.78.19,1.39.56,1.83.37.43.93.65,1.66.65h-.01Z" style="fill: #58595b;"/>
    <path d="M77.105,105.639c-1.84,0-3.3-.57-4.37-1.72-1.07-1.15-1.6-2.76-1.6-4.85,0-1.3.22-2.43.65-3.36.43-.94.99-1.71,1.67-2.32s1.42-1.06,2.23-1.36,1.6-.44,2.36-.44c1.25,0,2.2.21,2.86.63.65.42.98.98.98,1.7,0,.42-.12.74-.35.98s-.6.35-1.08.35-.8-.13-1-.38c-.2-.26-.34-.67-.43-1.23-.05-.27-.1-.49-.16-.68-.05-.19-.13-.34-.22-.45-.1-.11-.22-.2-.38-.25s-.37-.08-.65-.08c-.47,0-.93.12-1.37.37-.44.24-.83.61-1.17,1.1s-.61,1.1-.81,1.84-.3,1.6-.3,2.6c0,4.09,1.5,6.13,4.49,6.13,1.22,0,2.34-.3,3.36-.89v.31c-.19.23-.44.46-.74.7s-.66.46-1.06.66c-.4.2-.85.36-1.34.49-.5.13-1.01.19-1.55.19l-.02-.04Z" style="fill: #58595b;"/>
    <path d="M92.625,94.829c.14-.38.23-.7.27-.95.04-.25.06-.45.06-.59,0-.38-.28-.65-.83-.81l-.63-.18v-.29h3.99v.29l-.42.16c-.19.05-.35.13-.48.22-.13.1-.25.22-.37.38-.11.16-.23.35-.34.59-.11.23-.24.53-.38.9l-4.62,12.19c-.52,1.35-1.1,2.34-1.73,2.97-.64.63-1.44.94-2.41.94-.59,0-1.07-.14-1.42-.42-.36-.28-.53-.64-.53-1.1,0-.4.12-.71.35-.94.23-.23.55-.34.95-.34.7,0,1.11.37,1.25,1.12.05.23.1.4.14.52.04.12.16.18.35.18.3,0,.65-.2,1.07-.61.42-.41.8-1.07,1.15-2l.52-1.49-4.49-11.32c-.12-.33-.23-.6-.34-.81-.1-.21-.21-.38-.31-.51-.1-.13-.21-.23-.33-.3-.11-.07-.24-.12-.38-.16l-.5-.18v-.29h6.05v.29l-.68.18c-.3.09-.5.2-.6.33-.1.13-.16.3-.16.51s.03.43.1.65c.07.23.15.46.23.7l2.69,7.34h.1l2.63-7.18.05.01Z" style="fill: #58595b;"/>
    <path d="M105.875,105.589c-2.09,0-3.74-.3-4.96-.89l-.34-4.59h.34c.28.61.53,1.15.77,1.63.23.48.51.95.82,1.42.4.63.87,1.09,1.41,1.4.54.3,1.26.46,2.17.46,1.08,0,1.91-.31,2.5-.93s.89-1.43.89-2.44c0-.49-.07-.92-.21-1.29s-.37-.72-.68-1.04-.73-.64-1.24-.97c-.51-.32-1.14-.67-1.89-1.03-.66-.3-1.27-.61-1.81-.95s-1.02-.72-1.42-1.13-.71-.89-.93-1.42c-.22-.53-.33-1.13-.33-1.81s.13-1.35.38-1.96.62-1.14,1.11-1.59,1.08-.81,1.77-1.07c.7-.26,1.49-.39,2.37-.39s1.68.07,2.39.21c.7.14,1.26.3,1.66.5l.29,4.23h-.31c-.26-.57-.5-1.08-.73-1.53-.23-.44-.47-.86-.73-1.24-.19-.3-.37-.54-.55-.74-.17-.2-.37-.37-.57-.5-.21-.13-.45-.22-.72-.27-.27-.05-.6-.08-.98-.08-1.01,0-1.8.25-2.36.76-.57.5-.85,1.24-.85,2.22,0,.49.07.91.2,1.28.13.37.33.7.61.99.28.3.64.58,1.08.86s.98.57,1.6.86c.94.45,1.74.87,2.4,1.27.66.39,1.2.8,1.62,1.24.42.43.73.91.93,1.42.2.51.3,1.12.3,1.81s-.12,1.31-.37,1.94c-.24.64-.61,1.2-1.11,1.7s-1.12.9-1.88,1.21-1.64.47-2.65.47l.01-.02Z" style="fill: #58595b;"/>
    <path d="M117.195,105.589c-.94,0-1.68-.23-2.22-.68-.54-.45-.81-1.17-.81-2.16v-9.81h-1.51v-.21c.89-.36,1.65-.87,2.3-1.52.64-.65,1.15-1.42,1.51-2.31h.42v3.13h3.5l-.1.91h-3.39v9.7c0,.64.14,1.09.42,1.34s.72.38,1.33.38c.4,0,.76-.04,1.08-.12s.6-.16.85-.25v.29c-.3.28-.73.57-1.32.86-.58.3-1.27.44-2.05.44l-.01.01Z" style="fill: #58595b;"/>
    <path d="M127.555,105.589c-.92,0-1.78-.14-2.57-.43-.79-.29-1.48-.72-2.07-1.29-.59-.57-1.06-1.3-1.4-2.16-.34-.87-.51-1.89-.51-3.05s.18-2.16.55-3.05.86-1.63,1.47-2.22c.62-.59,1.32-1.04,2.1-1.34.78-.3,1.59-.46,2.43-.46.9,0,1.76.14,2.56.43s1.5.72,2.09,1.29,1.06,1.3,1.4,2.17c.34.87.51,1.89.51,3.05s-.18,2.16-.55,3.04c-.37.88-.86,1.62-1.47,2.22-.62.6-1.32,1.05-2.1,1.36-.78.3-1.59.46-2.43.46l-.01-.02ZM127.655,105.009c1.2,0,2.09-.49,2.66-1.48.57-.99.86-2.55.86-4.69,0-1.19-.08-2.21-.23-3.06-.16-.85-.39-1.54-.69-2.07-.3-.54-.69-.93-1.15-1.18-.46-.25-1-.38-1.6-.38-1.17,0-2.05.48-2.66,1.45-.61.97-.91,2.55-.91,4.74,0,2.39.31,4.09.93,5.12.62,1.03,1.55,1.54,2.8,1.54l-.01.01Z" style="fill: #58595b;"/>
    <path d="M134.805,105.039l.73-.18c.23-.05.4-.1.52-.16.12-.05.22-.12.29-.21.07-.09.11-.2.13-.35s.03-.35.03-.61v-9.24c0-.24-.01-.44-.04-.59-.03-.15-.07-.27-.14-.36-.07-.1-.17-.18-.3-.26s-.3-.17-.51-.27l-.65-.36v-.21l4.2-.57.16.05-.03,1.64h.03c.31-.21.67-.42,1.06-.63s.8-.4,1.21-.57c.42-.17.85-.31,1.29-.42.44-.1.87-.16,1.29-.16,1.25,0,2.14.29,2.66.86s.78,1.45.78,2.63v8.46c0,.26,0,.46.03.61.02.15.06.26.12.35s.16.16.29.21c.13.05.31.1.53.16l.73.18v.29h-6.1v-.29l.73-.16c.21-.05.37-.1.5-.14.12-.04.22-.11.29-.21.07-.1.11-.22.13-.38.02-.16.03-.37.03-.63v-8.03c0-.92-.15-1.56-.44-1.92-.3-.36-.83-.54-1.59-.54s-1.49.08-2.07.25-1.07.32-1.45.46v9.78c0,.26.01.47.04.63.03.16.07.28.13.38s.16.17.29.21c.13.04.3.09.51.14l.76.16v.29h-6.13v-.29h-.04Z" style="fill: #58595b;"/>
    <path d="M156.325,105.639c-1.13,0-2.1-.16-2.91-.48s-1.48-.78-2.02-1.38c-.54-.6-.93-1.32-1.19-2.17-.25-.84-.38-1.8-.38-2.86s.17-2.06.51-2.93c.34-.88.8-1.63,1.37-2.26.57-.63,1.24-1.11,2.01-1.46.77-.35,1.58-.52,2.45-.52,1.65,0,2.95.49,3.9,1.47s1.41,2.55,1.4,4.71h-8.82v.21c0,1.11.1,2.06.31,2.84.21.78.51,1.42.9,1.92s.88.86,1.46,1.1c.58.23,1.24.35,1.97.35.78,0,1.49-.08,2.13-.25.63-.16,1.2-.4,1.71-.69v.34c-.47.52-1.11,1-1.93,1.42-.82.43-1.77.64-2.87.64h0ZM156.065,92.149c-.96,0-1.74.4-2.36,1.21s-.97,2.11-1.06,3.91l6.03-.23c0-1.71-.2-2.95-.59-3.72s-1.07-1.15-2.02-1.15v-.02Z" style="fill: #58595b;"/>
    <path d="M47.395,120.259v-6.48h3.97v.7h-3.16v2.06h2.62v.65h-2.62v3.07s-.81,0-.81,0Z" style="fill: #58595b;"/>
    <path d="M57.595,120.259h-.83l-.65-1.89h-2.4l-.58,1.89h-.68l2.1-6.48h.94l2.11,6.48h-.01ZM54.945,114.649l-1,3.11h1.99l-.99-3.11Z" style="fill: #58595b;"/>
    <path d="M66.565,120.259h-.81v-5.66h-.04l-2.05,5.66h-.55l-2.1-5.66h-.04v5.66h-.68v-6.48h1.21l1.96,5.19,1.91-5.19h1.19s0,6.48,0,6.48Z" style="fill: #58595b;"/>
    <path d="M70.015,120.259v-6.48h.81v6.48h-.81Z" style="fill: #58595b;"/>
    <path d="M78.155,120.259h-3.83v-6.48h.81v5.76h3.01v.72h.01Z" style="fill: #58595b;"/>
    <path d="M81.975,117.529v2.73h-.81v-2.73l-2.16-3.75h.94l1.72,2.98,1.74-2.98h.74l-2.16,3.75h-.01Z" style="fill: #58595b;"/>
    <path d="M96.925,120.259h-.81l-1.41-5.03-1.32,5.03h-.82l-1.64-6.48h.83l1.29,5.25h.02l1.37-5.25h.65l1.47,5.25h.02l1.2-5.25h.71l-1.56,6.48h0Z" style="fill: #58595b;"/>
    <path d="M105.445,120.259h-4.19v-6.48h4.1v.7h-3.29v2.06h2.61v.65h-2.61v2.37h3.38v.7h0Z" style="fill: #58595b;"/>
    <path d="M112.845,120.259h-.83l-.65-1.89h-2.4l-.58,1.89h-.68l2.1-6.48h.94l2.11,6.48h-.01ZM110.185,114.649l-1,3.11h1.99l-.99-3.11Z" style="fill: #58595b;"/>
    <path d="M119.425,120.259h-3.83v-6.48h.81v5.76h3.01v.72h.01Z" style="fill: #58595b;"/>
    <path d="M123.525,120.259h-.81v-5.77h-1.84v-.71h4.5v.71h-1.84v5.77h-.01Z" style="fill: #58595b;"/>
    <path d="M131.985,120.259v-3.08h-3v3.08h-.81v-6.48h.81v2.69h3v-2.69h.81v6.48h-.81Z" style="fill: #58595b;"/>
  </g>
  <g>
    <path d="M105.895,54.619l12.89,22.19h-45.96c.76-3.71,4.7-5.08,7.91-6.04,3.67-1.1,7.46-1.77,11.09-3.03,6.32-2.2,12.04-6.08,13.84-12.89.08-.07.15-.15.22-.22l.01-.01Z" style="fill: #003d6d;"/>
    <path d="M105.675,54.839c-.92.77-1.75,1.93-2.69,2.75-11.98,10.44-30.92,1.31-43.38,10.81l11.57-20.14c.26-.13.53-.26.81-.37,1.24-.48,3.04-.62,4.28-.13,2.25.89,6.22,4.88,8.39,6.52,2.92,2.21,5.4,3.26,8.87,1.25,2.1-1.21,3.17-3.14,4.92-4.5,1.11-.87,1.79-.71,2.91,0,1.52.94,3.2,2.48,4.54,3.59-.07.08-.14.16-.22.22h0Z" style="fill: #00788a;"/>
    <path d="M95.575,36.589l1.36,2.56c-3.82-1.06-6.91,1.99-9.92,3.78l-4.2-3.95c-1.44-1.21-2.63-2-4.53-1.16-.26.11-1.3.88-1.41.77l5.46-9.53c4.12.57,5.57,5.2,9.04,6.97,1.38.71,2.68.79,4.21.55l-.01.01Z" style="fill: #71cad1;"/>
    <path d="M72.495,45.989c.56-.74.93-1.88,1.52-2.57.68-.79,3.63-3.26,4.54-3.87,1.14-.76,1.67-.47,2.73.27l4.43,4.09-5.66,4.52c-2.09-1.97-4.63-3.24-7.56-2.45v.01Z" style="fill: #00788a;"/>
    <path d="M94.575,35.119c-3.27.19-5.05-2.94-7.07-4.95-1.14-1.13-2.6-2.34-4.25-2.56l3.42-6.05,7.9,13.56h0Z" style="fill: #71cad1;"/>
    <path d="M94.435,40.639c1.36-.18,2.71.08,3.89.76,1.44,2.91,3.55,5.7,4.97,8.59.08.17.2.41.19.59-1.06-.74-2.2-1.8-3.59-1.8-3.63,0-5.48,6.52-10.32,6.18-2.77-.2-5.86-3.86-8.07-5.38l.11-.34c2.3-1.9,4.63-3.77,7.09-5.46,1.41-.97,4.09-2.91,5.72-3.13l.01-.01Z" style="fill: #008779;"/>
  </g>
  <g id="layer1">
    <g id="g9081">
      <path id="path5014" d="M137.131,148.344l-3.333-1.379-1.385,3.339-1.382-3.339-3.336,1.379,1.385-3.334-3.341-1.384,3.341-1.383-1.385-3.334,3.336,1.378,1.382-3.334,1.385,3.334-.017.009,3.35-1.387-1.38,3.334,3.338,1.383-3.339,1.384,1.381,3.334ZM132.412,135.834c-4.306,0-7.799,3.492-7.799,7.799s3.493,7.8,7.799,7.8,7.799-3.492,7.799-7.8-3.492-7.799-7.799-7.799" style="fill: #58595b;"/>
      <path id="path5018" d="M136.426,139.613l-6.85,2.837,2.837,1.175,1.175,2.835,2.838-6.847Z" style="fill: #58595b;"/>
      <path id="path5030" d="M139.044,151.061c.136,0,.323.024.323-.146,0-.123-.107-.138-.23-.138h-.251v.284h.158ZM139.498,151.613h-.165l-.278-.435h-.169v.435h-.144v-.944h.423c.081,0,.163.005.237.045.072.04.107.124.107.203,0,.187-.134.256-.306.261l.294.435ZM138.359,151.137c0,.385.314.684.706.684.387,0,.7-.299.7-.684,0-.373-.313-.674-.7-.674-.392,0-.706.301-.706.674M138.195,151.137c0-.461.389-.839.871-.839.478,0,.865.377.865.839,0,.471-.387.849-.865.849-.481,0-.871-.378-.871-.849" style="fill: #58595b;"/>
      <path id="path5034" d="M111.953,145.399c0,.351-.309.639-.678.639-.361,0-.681-.288-.681-.639s.32-.648.681-.648c.37,0,.678.298.678.648M112.571,151.421v.195h-2.542v-.195l.689-.166v-3.776l-.689-.175v-.186l1.863-.134v4.271l.68.166Z" style="fill: #58595b;"/>
      <path id="path5038" d="M119.858,147.324c-.545,0-.909.581-.978,1.357h1.843c-.027-.735-.248-1.357-.866-1.357M120.363,151.216c.759,0,1.29-.387,1.435-.485l.17.278c-.177.158-.861.709-1.968.709-1.429,0-2.416-.936-2.416-2.367,0-1.235.929-2.368,2.273-2.368,1.353,0,2.012.816,2.018,2.059h-3.026c-.071,1.114.289,2.173,1.513,2.173" style="fill: #58595b;"/>
      <path id="path5042" d="M89.858,147.324c-.545,0-.91.58-.979,1.356l1.844.002c-.027-.735-.247-1.358-.865-1.358M90.362,151.216c.759,0,1.291-.387,1.434-.485l.171.278c-.177.158-.861.709-1.968.709-1.429,0-2.416-.936-2.416-2.367,0-1.235.929-2.368,2.275-2.368,1.353,0,2.011.816,2.017,2.059h-3.026c-.071,1.114.289,2.173,1.514,2.173" style="fill: #58595b;"/>
      <path id="path5046" d="M76.483,149.124l-.928-2.872h-.018l-1.04,2.872h1.987ZM72.785,151.43l.415-.164s2.059-5.32,2.127-5.498c-.093-.307-.535-.349-.92-.401v-.242h1.957l2.055,6.13.411.166v.195h-2.552v-.195l.834-.187-.504-1.728h-2.243l-.577,1.728,1.08.176v.205h-2.082v-.186Z" style="fill: #58595b;"/>
      <path id="path5050" d="M85.316,146.984c.761,0,1.112.432,1.112,1.236v3.035l.576.166v.195h-2.295v-.195l.555-.154v-2.868c0-.422-.058-.784-.5-.784-.343,0-.763.318-.951.464v3.176l.566.166v.195h-2.285v-.195l.556-.154v-2.868c0-.442-.069-.784-.501-.784-.378,0-.784.317-.961.453v3.188l.597.166v.195h-2.46v-.195l.69-.166v-3.819l-.69-.174v-.185l1.824-.095.019.688c.248-.205.782-.686,1.544-.686.669,0,.965.34,1.063.721.278-.258.821-.721,1.541-.721" style="fill: #58595b;"/>
      <path id="path5054" d="M102.572,151.173c.627,0,1.213-.619,1.213-1.894,0-1.22-.517-1.709-1.165-1.709-.522,0-.897.253-1.079.361v2.943c.228.118.58.298,1.031.298M102.705,153.737v.247h-3.047v-.197l.7-.195v-6.124l-.691-.175v-.186l1.843-.126.019.538c.305-.19.849-.535,1.566-.535,1.235,0,1.977.814,1.977,2.274,0,1.709-1.009,2.46-2.059,2.46-.772,0-1.286-.318-1.472-.443v2.276l1.164.185Z" style="fill: #58595b;"/>
      <path id="path5058" d="M108.802,146.984c.394,0,.657.211.768.284l-.323.878c-.136-.078-.339-.205-.677-.205-.433,0-.695.302-.961.554v2.729l.998.164v.227h-2.862v-.195l.69-.166v-3.787l-.69-.175v-.186l1.781-.123.02,1.083h.024c.214-.378.524-1.083,1.231-1.083" style="fill: #58595b;"/>
      <path id="path5062" d="M98.655,145.399c0,.351-.308.639-.68.639-.36,0-.679-.288-.679-.639s.319-.648.679-.648c.371,0,.68.298.68.648M99.273,151.421v.195h-2.542v-.195l.689-.166v-3.776l-.689-.175v-.186l1.863-.134v4.271l.679.166Z" style="fill: #58595b;"/>
      <path id="path5066" d="M95.504,146.984c.394,0,.659.211.769.284l-.323.878c-.136-.078-.339-.205-.677-.205-.433,0-.695.302-.961.554v2.729l.997.164v.227h-2.861v-.195l.69-.166v-3.787l-.69-.175v-.186l1.78-.123.02,1.083h.024c.213-.378.524-1.083,1.231-1.083" style="fill: #58595b;"/>
      <path id="path5070" d="M116.428,147.201l-.11,1.139h-.304l-.127-.798c-.088-.047-.426-.22-.833-.22-.46,0-.811.247-.811.597-.001.46.536.639,1.082.875.526.215,1.399.552,1.396,1.457-.002.915-.851,1.466-1.895,1.466-.783,0-1.277-.15-1.416-.195l-.107-1.298h.344l.274.966c.047.022.403.189.826.189.616,0,1.066-.297,1.066-.74,0-.488-.746-.747-1.256-.967-.477-.206-1.212-.515-1.212-1.439,0-.743.688-1.25,1.686-1.25.719,0,1.296.188,1.396.218" style="fill: #58595b;"/>
      <path id="path5074" d="M106.436,153.995l-.022.131.44.112-.551,3.901-.467.105-.018.133h1.911l.02-.132-.69-.112.262-1.892h.79l.047.604h.209l.203-1.444h-.21l-.202.604h-.805l.25-1.774h1.232l.039.682h.25l.132-.917h-2.822Z" style="fill: #58595b;"/>
      <path id="path5086" d="M122.753,155.687c-.469,0-.849.547-.849,1.561,0,.531.235.873.651.873.375,0,.656-.291.793-.416l.118.137c-.151.179-.484.599-1.182.599-.643,0-1.093-.433-1.093-1.253,0-.899.598-1.702,1.572-1.702.426,0,.747.069.822.084l-.151.775h-.23l-.017-.52c-.024-.018-.183-.139-.434-.139" style="fill: #58595b;"/>
      <path id="path5090" d="M110.589,154.357c-.028.188-.173.355-.398.355-.203,0-.319-.173-.29-.355.035-.203.209-.362.397-.362.196,0,.311.173.29.362M109.752,155.755l-.459-.118.013-.092,1.136-.059-.374,2.673.437.113-.014.104h-1.095l.356-2.621Z" style="fill: #58595b;"/>
      <path id="path5094" d="M125.307,154.357c-.029.188-.173.355-.399.355-.203,0-.318-.173-.29-.355.036-.203.209-.362.398-.362.195,0,.312.173.29.362M124.47,155.755l-.459-.118.013-.092,1.136-.059-.375,2.673.439.113-.013.104h-1.098l.358-2.621Z" style="fill: #58595b;"/>
      <path id="path5098" d="M129.361,153.824l-.012.098.42.113-.6,4.351h1.107l.013-.107-.45-.111.625-4.428-1.101.084Z" style="fill: #58595b;"/>
      <path id="path5110" d="M113.126,156.457c.06-.395.056-.536-.092-.536-.451,0-.888,1.025-1.051,1.391l-.152,1.065h-.645l.368-2.622-.466-.119.013-.092,1.137-.058-.163,1.162c.297-.55.664-1.162,1.279-1.162s.467.59.435.84l-.256,1.834.444.112-.014.105h-1.103l.265-1.919Z" style="fill: #58595b;"/>
      <path id="path5114" d="M119.846,156.457c.059-.395.055-.536-.093-.536-.449,0-.888,1.025-1.05,1.391l-.153,1.065h-.644l.367-2.622-.466-.119.014-.092,1.137-.058-.162,1.162c.297-.55.665-1.162,1.279-1.162.618,0,.467.59.433.84l-.256,1.834.446.112-.015.105h-1.102l.265-1.919Z" style="fill: #58595b;"/>
      <path id="path5118" d="M116.115,155.689c-.509,0-.931.989-.931,1.813,0,.325.132.456.308.456.424,0,.787-1.009.892-1.277l.11-.889c-.03-.016-.176-.104-.38-.104M117.182,155.598l-.366,2.562.475.112-.007.106h-1.136l.13-.941c-.18.37-.525,1.005-1.123,1.005-.543,0-.681-.424-.681-.918,0-.997.734-2.037,1.826-2.037.411,0,.76.084.882.112" style="fill: #58595b;"/>
      <path id="path5122" d="M127.363,155.689c-.509,0-.931.989-.931,1.813,0,.325.13.456.309.456.422,0,.787-1.009.892-1.277l.111-.889c-.032-.016-.177-.104-.38-.104M128.43,155.598l-.366,2.562.475.112-.007.106h-1.136l.13-.941c-.182.37-.525,1.005-1.124,1.005-.542,0-.681-.424-.681-.918,0-.997.736-2.037,1.826-2.037.412,0,.76.084.883.112" style="fill: #58595b;"/>
    </g>
  </g>
  <g>
    <path d="M39.475,151.58v-4.365h1.646c.29,0,.511.015.664.042.214.036.394.104.539.204s.261.24.35.421.133.38.133.596c0,.371-.118.686-.354.942s-.663.386-1.28.386h-1.12v1.774h-.578ZM40.053,149.29h1.128c.374,0,.638-.069.795-.208s.235-.334.235-.587c0-.183-.046-.339-.138-.469s-.214-.216-.365-.257c-.098-.026-.277-.039-.539-.039h-1.117v1.56Z" style="fill: #58595b;"/>
    <path d="M43.275,149.999c0-.585.163-1.02.488-1.301.272-.234.603-.352.994-.352.435,0,.79.143,1.066.428.276.284.414.678.414,1.18,0,.407-.061.728-.183.961-.122.232-.3.414-.533.543-.233.129-.488.193-.764.193-.442,0-.8-.142-1.073-.426-.273-.283-.409-.692-.409-1.227ZM43.825,149.999c0,.405.088.708.265.909.177.202.399.303.667.303.266,0,.487-.102.664-.304s.265-.511.265-.926c0-.392-.089-.688-.267-.889-.178-.202-.398-.303-.663-.303-.268,0-.49.101-.667.301-.176.201-.265.503-.265.908Z" style="fill: #58595b;"/>
    <path d="M47.449,151.58l-.967-3.162h.554l.503,1.825.188.679c.008-.033.062-.251.164-.651l.503-1.853h.551l.474,1.834.158.604.182-.61.542-1.828h.521l-.989,3.162h-.557l-.503-1.894-.122-.539-.64,2.433h-.56Z" style="fill: #58595b;"/>
    <path d="M53.433,150.561l.554.068c-.087.324-.249.575-.485.754-.236.179-.538.268-.905.268-.463,0-.829-.143-1.1-.427-.271-.285-.407-.685-.407-1.198,0-.532.137-.945.411-1.239s.629-.44,1.066-.44c.423,0,.768.144,1.036.432.268.288.402.692.402,1.215,0,.032,0,.079-.003.143h-2.358c.02.348.118.613.295.798s.397.277.661.277c.196,0,.364-.052.503-.155.139-.103.249-.268.331-.494ZM51.674,149.695h1.766c-.023-.266-.091-.466-.202-.599-.171-.206-.392-.31-.664-.31-.246,0-.453.083-.621.247-.168.165-.261.386-.279.661Z" style="fill: #58595b;"/>
    <path d="M54.654,151.58v-3.162h.482v.479c.123-.225.237-.372.341-.443s.219-.107.344-.107c.181,0,.364.058.551.173l-.185.497c-.131-.077-.262-.116-.393-.116-.117,0-.222.035-.315.105s-.16.169-.2.294c-.059.19-.089.398-.089.625v1.655h-.536Z" style="fill: #58595b;"/>
    <path d="M58.855,150.561l.554.068c-.087.324-.249.575-.485.754-.236.179-.538.268-.905.268-.463,0-.829-.143-1.1-.427-.271-.285-.407-.685-.407-1.198,0-.532.137-.945.411-1.239s.629-.44,1.066-.44c.423,0,.768.144,1.036.432.268.288.402.692.402,1.215,0,.032,0,.079-.003.143h-2.358c.02.348.118.613.295.798s.397.277.661.277c.196,0,.364-.052.503-.155.139-.103.249-.268.331-.494ZM57.095,149.695h1.766c-.023-.266-.091-.466-.202-.599-.171-.206-.392-.31-.664-.31-.246,0-.453.083-.621.247-.168.165-.261.386-.279.661Z" style="fill: #58595b;"/>
    <path d="M62.133,151.58v-.399c-.2.314-.495.471-.884.471-.252,0-.483-.069-.695-.208s-.375-.333-.491-.582c-.116-.249-.174-.536-.174-.859,0-.315.052-.602.158-.858.105-.258.263-.454.474-.592.21-.137.445-.205.706-.205.19,0,.36.04.509.12.149.081.27.186.363.314v-1.566h.533v4.365h-.498ZM60.439,150.002c0,.405.085.708.256.908.171.2.372.301.604.301.234,0,.433-.096.597-.287.164-.191.246-.484.246-.877,0-.433-.083-.75-.25-.953-.167-.202-.373-.304-.617-.304-.238,0-.437.098-.597.292-.16.194-.24.501-.24.92Z" style="fill: #58595b;"/>
    <path d="M65.661,151.58h-.497v-4.365h.536v1.558c.226-.284.515-.426.866-.426.194,0,.378.039.552.117.174.079.316.189.429.331s.2.312.264.514c.063.2.095.415.095.643,0,.542-.134.961-.402,1.257s-.59.443-.965.443c-.373,0-.666-.155-.878-.467v.396ZM65.655,149.976c0,.379.052.652.155.821.169.276.397.414.685.414.234,0,.437-.102.607-.306.17-.203.256-.506.256-.909,0-.413-.082-.718-.246-.914s-.362-.295-.594-.295c-.234,0-.437.102-.607.306-.171.203-.256.497-.256.883Z" style="fill: #58595b;"/>
    <path d="M68.534,152.798l-.06-.503c.117.031.22.047.307.047.119,0,.215-.02.286-.059.071-.04.13-.096.176-.167.034-.054.088-.187.164-.399.01-.029.026-.073.048-.131l-1.2-3.168h.578l.658,1.831c.085.232.162.477.229.732.062-.246.135-.486.22-.721l.676-1.843h.536l-1.203,3.216c-.129.348-.229.586-.301.718-.095.177-.205.306-.328.389-.123.082-.27.123-.44.123-.104,0-.219-.021-.346-.065Z" style="fill: #58595b;"/>
  </g>
</svg>