<?xml version="1.0" encoding="UTF-8" standalone="no"?>
<svg xmlns="http://www.w3.org/2000/svg" data-name="Layer 1" id="Layer_1" viewBox="0 0 300 100">
    
  <defs>
        
    <style>
      .cls-1 {
        fill: #58595b;
      }

      .cls-2 {
        fill: #58595b;
      }

      .cls-3 {
        fill: #003d6d;
      }

      .cls-4 {
        fill: #00788a;
      }

      .cls-5 {
        fill: #00788a;
      }

      .cls-6 {
        fill: #008779;
      }

      .cls-7 {
        fill: #71cad1;
      }
    </style>
      
  </defs>
    
  <g>
        
    <path class="cls-1" d="M78.53,84.13l.97-.18c.23-.05.41-.1.55-.14.14-.04.24-.12.31-.23.07-.11.12-.26.14-.46.03-.19.04-.45.04-.78v-13.9c0-.33,0-.59-.03-.78-.02-.19-.07-.34-.14-.46-.08-.11-.19-.19-.33-.23-.14-.04-.32-.09-.55-.14l-.97-.18v-.29h7.04v.29l-.97.18c-.24.04-.43.08-.57.13-.14.05-.25.13-.33.23-.08.1-.13.26-.14.46-.02.2-.03.47-.03.8v13.64c0,.37.02.67.07.9.04.23.15.42.33.55.17.13.44.22.81.26.37.04.88.07,1.54.07.63,0,1.13-.02,1.53-.05.39-.03.72-.11.99-.22.27-.11.49-.27.67-.47.17-.2.36-.46.55-.77.26-.47.52-1.01.78-1.62.26-.61.51-1.27.76-1.98h.34l-.37,5.69h-12.99v-.29Z"/>
        
    <path class="cls-1" d="M99.69,84.73c-1.13,0-2.1-.16-2.91-.48-.81-.32-1.48-.78-2.02-1.38-.54-.6-.93-1.32-1.19-2.17-.25-.84-.38-1.8-.38-2.86s.17-2.06.51-2.93c.34-.88.8-1.63,1.37-2.26.57-.63,1.24-1.11,2.01-1.46.76-.35,1.58-.52,2.45-.52,1.65,0,2.95.49,3.9,1.47.95.98,1.41,2.55,1.4,4.71h-8.82v.21c0,1.11.1,2.06.31,2.84.21.78.51,1.42.9,1.92.39.5.88.86,1.46,1.1.58.23,1.24.35,1.97.35.78,0,1.49-.08,2.13-.25.63-.16,1.2-.4,1.71-.69v.34c-.47.52-1.11,1-1.93,1.42-.82.43-1.77.64-2.87.64ZM99.43,71.24c-.96,0-1.74.4-2.36,1.21-.62.8-.97,2.11-1.06,3.91l6.03-.23c0-1.71-.2-2.95-.59-3.72-.39-.77-1.07-1.15-2.02-1.15Z"/>
        
    <path class="cls-1" d="M110.93,89.5c-1.69,0-3-.24-3.94-.73s-1.41-1.21-1.41-2.17c0-.68.23-1.26.7-1.73.47-.48,1.21-.86,2.22-1.13v-.05c-.64-.14-1.11-.38-1.41-.73-.3-.35-.44-.78-.44-1.3,0-.61.19-1.16.57-1.64.38-.49.83-.87,1.36-1.15v-.08c-.66-.33-1.2-.8-1.6-1.4-.41-.6-.61-1.3-.61-2.1s.15-1.46.44-2.03c.3-.57.68-1.05,1.16-1.43.48-.38,1.02-.67,1.62-.86.6-.19,1.21-.29,1.84-.29.54,0,1.07.06,1.59.18.52.12.99.31,1.41.57.45-.43.88-.76,1.29-.98.41-.22.83-.33,1.27-.33.4,0,.73.1.99.3.26.2.39.52.39.95,0,.31-.09.57-.26.76-.17.19-.43.29-.78.29-.28,0-.48-.06-.61-.17-.13-.11-.24-.28-.33-.51-.17-.4-.39-.59-.64-.57-.25.02-.57.17-.95.47v.05c.56.35.99.8,1.29,1.37.3.57.46,1.22.46,1.97s-.15,1.43-.44,1.98c-.3.56-.68,1.02-1.16,1.38-.48.37-1.03.63-1.64.81-.62.17-1.24.26-1.86.26-.96,0-1.76-.15-2.4-.44-.19.14-.38.33-.56.59-.18.25-.27.53-.27.82,0,.33.12.57.37.73.24.16.64.23,1.2.23h4.33c1.23,0,2.19.25,2.86.74.67.5,1,1.31,1,2.44,0,.56-.13,1.13-.4,1.71-.27.58-.69,1.11-1.25,1.59-.57.48-1.29.87-2.18,1.17-.89.3-1.95.46-3.18.46ZM111.37,88.93c.64,0,1.25-.07,1.83-.2.57-.13,1.07-.33,1.49-.59.42-.26.75-.59.99-.98.24-.39.37-.85.37-1.37,0-.71-.2-1.22-.6-1.53-.4-.3-1.07-.46-2.01-.46h-4.28c-.42.19-.74.49-.98.9-.23.41-.35.91-.35,1.5,0,.96.3,1.65.91,2.07.61.43,1.49.64,2.63.64ZM111.43,78.99c.82,0,1.43-.28,1.83-.83.4-.55.6-1.49.6-2.81,0-1.47-.2-2.53-.6-3.16-.4-.63-1.01-.95-1.83-.95s-1.4.29-1.8.86c-.4.57-.6,1.53-.6,2.86,0,1.46.2,2.49.6,3.11.4.62,1,.92,1.8.92Z"/>
        
    <path class="cls-1" d="M122.38,84.76c-1.18,0-2.11-.28-2.79-.85s-1.02-1.35-1.02-2.36c0-.59.11-1.09.34-1.49.23-.4.53-.73.91-1,.38-.27.81-.48,1.28-.64.47-.16.96-.3,1.46-.44l3.44-.86v-2.83c0-.48-.02-.91-.05-1.29-.04-.37-.13-.69-.29-.95-.16-.26-.39-.46-.69-.6-.3-.14-.72-.21-1.24-.21-.59,0-.98.09-1.17.27-.19.18-.33.49-.42.92-.07.67-.22,1.14-.44,1.4-.23.26-.57.39-1.04.39-.43,0-.77-.11-.99-.33-.23-.22-.34-.52-.34-.9,0-.42.14-.77.43-1.06s.66-.53,1.12-.72c.46-.19.98-.33,1.57-.42.58-.09,1.17-.13,1.76-.13,1.58,0,2.73.29,3.44.86.71.57,1.07,1.43,1.07,2.58v8.09c0,.4.04.7.13.9.09.2.22.35.39.46.19.14.4.23.64.26.23.04.47.06.72.08v.21c-.19.14-.49.28-.89.42-.4.14-.85.21-1.36.21-1.32,0-2.06-.55-2.22-1.64h-.08c-.37.45-.86.84-1.49,1.17-.63.33-1.36.5-2.19.5ZM123.56,83.56c.61,0,1.12-.1,1.53-.31.41-.21.72-.46.93-.76v-4.62l-1.51.26c-.52.09-.98.2-1.37.34-.39.14-.72.32-.99.55-.27.23-.47.5-.6.83-.13.33-.2.74-.2,1.23,0,.78.19,1.39.56,1.83.37.43.93.65,1.66.65Z"/>
        
    <path class="cls-1" d="M137.09,84.73c-1.84,0-3.3-.57-4.37-1.72-1.07-1.15-1.6-2.76-1.6-4.85,0-1.3.22-2.43.65-3.36.43-.94.99-1.71,1.67-2.32.68-.61,1.42-1.06,2.23-1.36.81-.3,1.6-.44,2.36-.44,1.25,0,2.2.21,2.86.63.65.42.98.98.98,1.7,0,.42-.12.74-.35.98s-.6.35-1.08.35-.8-.13-1-.38c-.2-.26-.34-.67-.43-1.23-.05-.27-.1-.49-.16-.68-.05-.19-.13-.34-.22-.45-.1-.11-.22-.2-.38-.25-.16-.05-.37-.08-.65-.08-.47,0-.93.12-1.37.37-.44.24-.83.61-1.17,1.1-.34.49-.61,1.1-.81,1.84-.2.74-.3,1.6-.3,2.6,0,4.09,1.5,6.13,4.49,6.13,1.22,0,2.34-.3,3.36-.89v.31c-.19.23-.44.46-.74.7-.3.24-.66.46-1.06.66-.4.2-.85.36-1.34.49-.5.13-1.01.19-1.55.19Z"/>
        
    <path class="cls-1" d="M152.61,73.92c.14-.38.23-.7.27-.95.04-.25.06-.45.06-.59,0-.38-.28-.65-.83-.81l-.63-.18v-.29h3.99v.29l-.42.16c-.19.05-.35.13-.48.22-.13.1-.25.22-.37.38-.11.16-.23.35-.34.59-.11.23-.24.53-.38.9l-4.62,12.19c-.52,1.35-1.1,2.34-1.73,2.97-.64.63-1.44.94-2.41.94-.59,0-1.07-.14-1.42-.42-.36-.28-.53-.64-.53-1.1,0-.4.12-.71.35-.94.23-.23.55-.34.95-.34.7,0,1.11.37,1.25,1.12.05.23.1.4.14.52.04.12.16.18.35.18.3,0,.65-.2,1.07-.61.42-.41.8-1.07,1.15-2l.52-1.49-4.49-11.32c-.12-.33-.23-.6-.34-.81-.1-.21-.21-.38-.31-.51-.1-.13-.21-.23-.33-.3-.11-.07-.24-.12-.38-.16l-.5-.18v-.29h6.05v.29l-.68.18c-.3.09-.5.2-.6.33-.1.13-.16.3-.16.51s.03.43.1.65c.07.23.15.46.23.7l2.69,7.34h.1l2.63-7.18Z"/>
        
    <path class="cls-2" d="M165.86,84.68c-2.09,0-3.74-.3-4.96-.89l-.34-4.59h.34c.28.61.53,1.15.77,1.63.23.48.51.95.82,1.42.4.63.87,1.09,1.41,1.4.54.3,1.26.46,2.17.46,1.08,0,1.91-.31,2.5-.93.59-.62.89-1.43.89-2.44,0-.49-.07-.92-.21-1.29-.14-.37-.37-.72-.68-1.04-.31-.32-.73-.64-1.24-.97-.51-.32-1.14-.67-1.89-1.03-.66-.3-1.27-.61-1.81-.95s-1.02-.72-1.42-1.13-.71-.89-.93-1.42c-.22-.53-.33-1.13-.33-1.81s.13-1.35.38-1.96c.25-.61.62-1.14,1.11-1.59.49-.45,1.08-.81,1.77-1.07.7-.26,1.49-.39,2.37-.39s1.68.07,2.39.21c.7.14,1.26.3,1.66.5l.29,4.23h-.31c-.26-.57-.5-1.08-.73-1.53-.23-.44-.47-.86-.73-1.24-.19-.3-.37-.54-.55-.74-.17-.2-.37-.37-.57-.5-.21-.13-.45-.22-.72-.27-.27-.05-.6-.08-.98-.08-1.01,0-1.8.25-2.36.76-.57.5-.85,1.24-.85,2.22,0,.49.07.91.2,1.28.13.37.33.7.61.99.28.3.64.58,1.08.86.44.28.98.57,1.6.86.94.45,1.74.87,2.4,1.27.66.39,1.2.8,1.62,1.24.42.43.73.91.93,1.42.2.51.3,1.12.3,1.81s-.12,1.31-.37,1.94c-.24.64-.61,1.2-1.11,1.7-.5.5-1.12.9-1.88,1.21s-1.64.47-2.65.47Z"/>
        
    <path class="cls-1" d="M177.18,84.68c-.94,0-1.68-.23-2.22-.68-.54-.45-.81-1.17-.81-2.16v-9.81h-1.51v-.21c.89-.36,1.65-.87,2.3-1.52.64-.65,1.15-1.42,1.51-2.31h.42v3.13h3.5l-.1.91h-3.39v9.7c0,.64.14,1.09.42,1.34.28.25.72.38,1.33.38.4,0,.76-.04,1.08-.12.32-.08.6-.16.85-.25v.29c-.3.28-.73.57-1.32.86-.58.3-1.27.44-2.05.44Z"/>
        
    <path class="cls-1" d="M187.54,84.68c-.92,0-1.78-.14-2.57-.43-.79-.29-1.48-.72-2.07-1.29-.59-.57-1.06-1.3-1.4-2.16-.34-.87-.51-1.89-.51-3.05s.18-2.16.55-3.05.86-1.63,1.47-2.22c.62-.59,1.32-1.04,2.1-1.34.78-.3,1.59-.46,2.43-.46.9,0,1.76.14,2.56.43.8.29,1.5.72,2.09,1.29s1.06,1.3,1.4,2.17c.34.87.51,1.89.51,3.05s-.18,2.16-.55,3.04c-.37.88-.86,1.62-1.47,2.22-.62.6-1.32,1.05-2.1,1.36-.78.3-1.59.46-2.43.46ZM187.64,84.1c1.2,0,2.09-.49,2.66-1.48.57-.99.86-2.55.86-4.69,0-1.19-.08-2.21-.23-3.06-.16-.85-.39-1.54-.69-2.07-.3-.54-.69-.93-1.15-1.18-.46-.25-1-.38-1.6-.38-1.17,0-2.05.48-2.66,1.45-.61.97-.91,2.55-.91,4.74,0,2.39.31,4.09.93,5.12.62,1.03,1.55,1.54,2.8,1.54Z"/>
        
    <path class="cls-1" d="M194.79,84.13l.73-.18c.23-.05.4-.1.52-.16.12-.05.22-.12.29-.21.07-.09.11-.2.13-.35s.03-.35.03-.61v-9.24c0-.24-.01-.44-.04-.59-.03-.15-.07-.27-.14-.36-.07-.1-.17-.18-.3-.26-.13-.08-.3-.17-.51-.27l-.65-.36v-.21l4.2-.57.16.05-.03,1.64h.03c.31-.21.67-.42,1.06-.63.39-.21.8-.4,1.21-.57.42-.17.85-.31,1.29-.42.44-.1.87-.16,1.29-.16,1.25,0,2.14.29,2.66.86.52.57.78,1.45.78,2.63v8.46c0,.26,0,.46.03.61.02.15.06.26.12.35s.16.16.29.21c.13.05.31.1.53.16l.73.18v.29h-6.1v-.29l.73-.16c.21-.05.37-.1.5-.14.12-.04.22-.11.29-.21.07-.1.11-.22.13-.38.02-.16.03-.37.03-.63v-8.03c0-.92-.15-1.56-.44-1.92-.3-.36-.83-.54-1.59-.54s-1.49.08-2.07.25c-.58.17-1.07.32-1.45.46v9.78c0,.26.01.47.04.63.03.16.07.28.13.38.06.1.16.17.29.21.13.04.3.09.51.14l.76.16v.29h-6.13v-.29Z"/>
        
    <path class="cls-1" d="M216.31,84.73c-1.13,0-2.1-.16-2.91-.48s-1.48-.78-2.02-1.38c-.54-.6-.93-1.32-1.19-2.17-.25-.84-.38-1.8-.38-2.86s.17-2.06.51-2.93c.34-.88.8-1.63,1.37-2.26.57-.63,1.24-1.11,2.01-1.46.77-.35,1.58-.52,2.45-.52,1.65,0,2.95.49,3.9,1.47.95.98,1.41,2.55,1.4,4.71h-8.82v.21c0,1.11.1,2.06.31,2.84.21.78.51,1.42.9,1.92s.88.86,1.46,1.1c.58.23,1.24.35,1.97.35.78,0,1.49-.08,2.13-.25.63-.16,1.2-.4,1.71-.69v.34c-.47.52-1.11,1-1.93,1.42-.82.43-1.77.64-2.87.64ZM216.05,71.24c-.96,0-1.74.4-2.36,1.21s-.97,2.11-1.06,3.91l6.03-.23c0-1.71-.2-2.95-.59-3.72s-1.07-1.15-2.02-1.15Z"/>
        
    <path class="cls-1" d="M107.38,99.35v-6.48h3.97v.7h-3.16v2.06h2.62v.65h-2.62v3.07h-.81Z"/>
        
    <path class="cls-1" d="M117.58,99.35h-.83l-.65-1.89h-2.4l-.58,1.89h-.68l2.1-6.48h.94l2.11,6.48ZM114.93,93.74l-1,3.11h1.99l-.99-3.11Z"/>
        
    <path class="cls-1" d="M126.55,99.35h-.81v-5.66h-.04l-2.05,5.66h-.55l-2.1-5.66h-.04v5.66h-.68v-6.48h1.21l1.96,5.19,1.91-5.19h1.19v6.48Z"/>
        
    <path class="cls-1" d="M130,99.35v-6.48h.81v6.48h-.81Z"/>
        
    <path class="cls-1" d="M138.14,99.35h-3.83v-6.48h.81v5.76h3.01v.72Z"/>
        
    <path class="cls-1" d="M141.96,96.62v2.73h-.81v-2.73l-2.16-3.75h.94l1.72,2.98,1.74-2.98h.74l-2.16,3.75Z"/>
        
    <path class="cls-1" d="M156.91,99.35h-.81l-1.41-5.03-1.32,5.03h-.82l-1.64-6.48h.83l1.29,5.25h.02l1.37-5.25h.65l1.47,5.25h.02l1.2-5.25h.71l-1.56,6.48Z"/>
        
    <path class="cls-1" d="M165.43,99.35h-4.19v-6.48h4.1v.7h-3.29v2.06h2.61v.65h-2.61v2.37h3.38v.7Z"/>
        
    <path class="cls-1" d="M172.83,99.35h-.83l-.65-1.89h-2.4l-.58,1.89h-.68l2.1-6.48h.94l2.11,6.48ZM170.17,93.74l-1,3.11h1.99l-.99-3.11Z"/>
        
    <path class="cls-1" d="M179.41,99.35h-3.83v-6.48h.81v5.76h3.01v.72Z"/>
        
    <path class="cls-1" d="M183.51,99.35h-.81v-5.77h-1.84v-.71h4.5v.71h-1.84v5.77Z"/>
        
    <path class="cls-1" d="M191.97,99.35v-3.08h-3v3.08h-.81v-6.48h.81v2.69h3v-2.69h.81v6.48h-.81Z"/>
      
  </g>
    
  <g>
        
    <path class="cls-3" d="M165.88,33.71l12.89,22.19h-45.96c.76-3.71,4.7-5.08,7.91-6.04,3.67-1.1,7.46-1.77,11.09-3.03,6.32-2.2,12.04-6.08,13.84-12.89.08-.07.15-.15.22-.22Z"/>
        
    <path class="cls-5" d="M165.66,33.93c-.92.77-1.75,1.93-2.69,2.75-11.98,10.44-30.92,1.31-43.38,10.81l11.57-20.14c.26-.13.53-.26.81-.37,1.24-.48,3.04-.62,4.28-.13,2.25.89,6.22,4.88,8.39,6.52,2.92,2.21,5.4,3.26,8.87,1.25,2.1-1.21,3.17-3.14,4.92-4.5,1.11-.87,1.79-.71,2.91,0,1.52.94,3.2,2.48,4.54,3.59-.07.08-.14.16-.22.22Z"/>
        
    <path class="cls-7" d="M155.56,15.68l1.36,2.56c-3.82-1.06-6.91,1.99-9.92,3.78l-4.2-3.95c-1.44-1.21-2.63-2-4.53-1.16-.26.11-1.3.88-1.41.77l5.46-9.53c4.12.57,5.57,5.2,9.04,6.97,1.38.71,2.68.79,4.21.55Z"/>
        
    <path class="cls-4" d="M132.48,25.08c.56-.74.93-1.88,1.52-2.57.68-.79,3.63-3.26,4.54-3.87,1.14-.76,1.67-.47,2.73.27l4.43,4.09-5.66,4.52c-2.09-1.97-4.63-3.24-7.56-2.45Z"/>
        
    <path class="cls-7" d="M154.56,14.21c-3.27.19-5.05-2.94-7.07-4.95-1.14-1.13-2.6-2.34-4.25-2.56l3.42-6.05,7.9,13.56Z"/>
        
    <path class="cls-6" d="M154.42,19.73c1.36-.18,2.71.08,3.89.76,1.44,2.91,3.55,5.7,4.97,8.59.08.17.2.41.19.59-1.06-.74-2.2-1.8-3.59-1.8-3.63,0-5.48,6.52-10.32,6.18-2.77-.2-5.86-3.86-8.07-5.38l.11-.34c2.3-1.9,4.63-3.77,7.09-5.46,1.41-.97,4.09-2.91,5.72-3.13Z"/>
      
  </g>
  
</svg>
